<?xml version="1.0" encoding="UTF-8" standalone="no"?>
<!-- Created with Inkscape (http://www.inkscape.org/) -->

<svg
   xmlns:dc="http://purl.org/dc/elements/1.1/"
   xmlns:cc="http://creativecommons.org/ns#"
   xmlns:rdf="http://www.w3.org/1999/02/22-rdf-syntax-ns#"
   xmlns:svg="http://www.w3.org/2000/svg"
   xmlns="http://www.w3.org/2000/svg"
   xmlns:sodipodi="http://sodipodi.sourceforge.net/DTD/sodipodi-0.dtd"
   xmlns:inkscape="http://www.inkscape.org/namespaces/inkscape"
   height="100%"
   viewBox="0 0 498.90457 489.37781"
   id="svg2"
   version="1.1"
   inkscape:version="0.48.4 r9939"
   sodipodi:docname="blueLeftShoot.svg"
   width="100%">
  <defs
     id="defs4" />
  <sodipodi:namedview
     id="base"
     pagecolor="#ffffff"
     bordercolor="#666666"
     borderopacity="1.0"
     inkscape:pageopacity="0.0"
     inkscape:pageshadow="2"
     inkscape:zoom="2.8"
     inkscape:cx="82.684821"
     inkscape:cy="260.60553"
     inkscape:document-units="px"
     inkscape:current-layer="g4176"
     showgrid="false"
     showguides="true"
     inkscape:guide-bbox="true"
     inkscape:window-width="1536"
     inkscape:window-height="801"
     inkscape:window-x="-8"
     inkscape:window-y="-8"
     inkscape:window-maximized="1"
     fit-margin-top="0"
     fit-margin-left="0"
     fit-margin-right="0"
     fit-margin-bottom="0" />
  <metadata
     id="metadata7">
    <rdf:RDF>
      <cc:Work
         rdf:about="">
        <dc:format>image/svg+xml</dc:format>
        <dc:type
           rdf:resource="http://purl.org/dc/dcmitype/StillImage" />
        <dc:title />
      </cc:Work>
    </rdf:RDF>
  </metadata>
  <g
     inkscape:label="Layer 1"
     inkscape:groupmode="layer"
     id="layer1" style="cursor:crosshair"
     transform="translate(-76.998692,-545.23847)">
    <g
       id="g4176"
       transform="matrix(1.0955103,0,0,1.0955103,-33.237032,-17.682646)">
      <path
         id="path4116"
         d="m 193.39319,960.41825 -91.74884,-0.35365 -0.43253,-24.4116 c -0.23787,-13.42637 -0.2286,-45.56859 0.0208,-71.42715 l 0.45331,-47.01559 17.43264,-0.47132 17.43263,-0.47133 13.41321,-8.02069 c 7.37721,-4.41137 17.03866,-9.66484 19.33327,-11.58627 -0.47544,-0.0274 29.35584,-55.44512 29.16645,-56.0242 l 0,-18.57389 0,-18.57389 -15.55706,-25.87648 c -8.54496,-14.21305 -20.2556,-32.07304 -21.68575,-34.14813 -1.43025,-2.0751 -4.63027,-3.52293 -12.71763,-8.06894 l -14.70421,-8.26551 -16.20493,-2.6e-4 -16.20494,-1.7e-4 0.38274,-18.91783 0.38283,-18.91792 133.80056,-0.35078 133.80062,-0.35079 0.0338,35.77884 c 0.0182,19.67837 0.0338,53.42402 0.0338,74.99037 0,21.56644 -0.0147,89.03419 -0.0338,149.92837 l -0.0338,110.71663 -42.30716,0.38291 c -23.26886,0.21059 -83.5941,0.22375 -134.0559,0.0294 z"
         style="fill:#4c9dce;fill-opacity:1"
         inkscape:connector-curvature="0"
         sodipodi:nodetypes="ccsscccsccccscsccccccccsscscc" />
      <path
         d="m 439.90483,925.68778 c -0.0113,-18.91792 -0.019,-86.40316 -0.019,-149.96725 0,-63.56407 0.009,-131.66845 0.019,-151.34302 l 0.019,-35.772 32.11901,0 c 29.36909,0 32.31399,-0.21543 34.39602,-2.51611 1.99187,-2.20091 2.27702,-6.85336 2.27702,-37.14786 l 0,-34.63176 23.3893,0 23.38931,0 c 0.60565,0.99512 -2.59871,445.7741 -2.59871,445.7741 l -112.97195,0 z"
         style="fill:#fdff6e;fill-opacity:1;stroke:#000000;stroke-width:0.91281646;stroke-opacity:1"
         id="path4112"
         inkscape:connector-curvature="0"
         sodipodi:nodetypes="csscscscccccc" />
      <path
         id="path4104"
         d="m 101.83395,682.4448 c -0.0541,0.053 21.38999,14.35218 31.45942,20.58614 2.67803,1.62013 -0.38838,-1.2004 -0.0328,-0.0362 1.09353,3.58011 0.42016,38.0395 -0.49296,38.57438 l -32.02661,19.4055 z"
         style="fill:#4c9dce;fill-opacity:1"
         inkscape:connector-curvature="0"
         sodipodi:nodetypes="ccsscc" />
      <path
         inkscape:connector-curvature="0"
         id="path3217"
         d="m 101.46718,547.33016 0,-33.02036 199.49711,0 199.49701,0 0,33.02036 0,33.02027 -199.49701,0 -199.49711,0 z"
         style="fill:#4c9dce;fill-opacity:1" />
      <path
         inkscape:connector-curvature="0"
         id="path4118"
         d="m 367.62517,588.80378 70.3505,-0.38653 -0.0967,371.66056 -70.35049,-0.0967 z"
         style="fill:#999999;stroke:none" />
      <path
         style="fill:none;stroke:#000000;stroke-width:0.91281658px;stroke-linecap:butt;stroke-linejoin:miter;stroke-opacity:1"
         d="m 102.01276,682.69169 31.12468,-55.70026"
         id="path3058"
         inkscape:connector-curvature="0"
         sodipodi:nodetypes="cc" />
      <path
         style="fill:none;stroke:#000000;stroke-width:0.91281658px;stroke-linecap:butt;stroke-linejoin:miter;stroke-opacity:1"
         d="m 160.89392,643.27113 -27.75648,59.06847 65.36807,0.499"
         id="path3060"
         inkscape:connector-curvature="0"
         sodipodi:nodetypes="ccc" />
      <path
         style="fill:none;stroke:#000000;stroke-width:0.91281658px;stroke-linecap:butt;stroke-linejoin:miter;stroke-opacity:1"
         d="m 132.63844,741.13642 65.86707,-0.37424"
         id="path3062"
         inkscape:connector-curvature="0"
         sodipodi:nodetypes="cc" />
      <path
         style="fill:none;stroke:#000000;stroke-width:0.91281658px;stroke-linecap:butt;stroke-linejoin:miter;stroke-opacity:1"
         d="m 101.95038,760.09821 31.68605,56.51112"
         id="path3064"
         inkscape:connector-curvature="0"
         sodipodi:nodetypes="cc" />
      <path
         style="fill:none;stroke:#000000;stroke-width:0.91281658px;stroke-linecap:butt;stroke-linejoin:miter;stroke-opacity:1"
         d="m 132.63844,741.51067 36.55123,54.14089"
         id="path3066"
         inkscape:connector-curvature="0"
         sodipodi:nodetypes="cc" />
      <path
         style="fill:none;stroke:#000000;stroke-width:0.91281658px;stroke-linecap:butt;stroke-linejoin:miter;stroke-opacity:1"
         d="m 101.2019,816.60933 32.43453,0.49899 35.81225,-20.67627 29.30633,-56.41837 -0.499,-36.67609 -37.17497,-60.12884 -27.69411,-16.7163 -31.68604,0.49898"
         id="path3068"
         inkscape:connector-curvature="0" />
      <path
         style="fill:none;stroke:#000000;stroke-width:0.91281658px;stroke-linecap:butt;stroke-linejoin:miter;stroke-opacity:1"
         d="m 102.12492,682.60714 31.24265,19.94997 -0.52926,38.98908 -31.01456,18.71318"
         id="path3070"
         inkscape:connector-curvature="0"
         sodipodi:nodetypes="cccc" />
      <path
         style="fill:none;stroke:#000000;stroke-width:0.91281658px;stroke-linecap:butt;stroke-linejoin:miter;stroke-opacity:1"
         d="M 101.43544,626.696 101.0826,817.58372"
         id="path3076"
         inkscape:connector-curvature="0" />
      <path
         style="fill:#eebda2;stroke:none;fill-opacity:1"
         d="M 19.150826,154.42013 C 13.7034,164.6125 7.4987965,174.49083 2.8147651,185.04038 c 10.7652129,6.76024 21.4374159,14.11747 32.3722319,20.37667 10.048234,-19.71712 19.230704,-40.01971 28.288802,-60.25864 0.284,-1.44032 2.649696,-3.65574 0.09017,-4.28064 -9.015294,-5.81864 -18.31821,-11.17404 -27.49509,-16.73065 -5.640019,10.09101 -11.280037,20.18201 -16.920055,30.27301 z m 45.662052,-12.67426 c 0.05235,-0.0164 -0.02168,-0.0291 0,0 z"
         id="path2996"
         inkscape:connector-curvature="0"
         transform="matrix(0.91281662,0,0,0.91281662,100.625,513.84375)" />
      <path
         style="fill:#eebda2;stroke:none;fill-opacity:1"
         d="m 25.385361,124.03664 c -8.064454,0.0147 -16.1257393,0.26275 -24.1805265,0.64713 0.1232091,19.70732 -0.25973199,39.42706 0.3945908,59.12549 11.0451197,-19.79236 22.3683207,-39.80221 33.1456307,-59.63057 -3.112835,-0.19826 -6.241613,-0.14422 -9.359695,-0.14205 z"
         id="path2998"
         inkscape:connector-curvature="0"
         transform="matrix(0.91281662,0,0,0.91281662,100.625,513.84375)" />
      <path
         style="fill:#eebda2;stroke:none;fill-opacity:1"
         d="m 66.51751,143.37159 c -5.986586,10.20618 -10.521266,21.39936 -15.771855,32.07129 -4.605912,10.05515 -9.613084,20.12496 -13.932943,30.19514 8.687054,1.0505 17.695651,0.37662 26.500673,0.66262 14.067504,-0.0433 28.144529,0.43895 42.205485,0.14235 C 92.729782,185.3648 79.695091,164.18607 66.51751,143.37159 z"
         id="path3000"
         inkscape:connector-curvature="0"
         transform="matrix(0.91281662,0,0,0.91281662,100.625,513.84375)" />
      <path
         style="fill:#eebda2;stroke:none;fill-opacity:1"
         d="m 39.306526,207.12168 c -2.822111,-0.85512 -3.309491,0.89766 -2.919583,3.31384 -0.254976,12.60798 -0.575252,25.26615 -0.39498,37.84988 23.65982,0.24718 47.338493,0.0883 70.994787,-0.42616 -0.0456,-13.4171 -0.43375,-26.83267 -0.66292,-40.24826 -22.338774,-0.17597 -44.677529,-0.52711 -67.017304,-0.4893 z"
         id="path3002"
         inkscape:connector-curvature="0"
         transform="matrix(0.91281662,0,0,0.91281662,100.625,513.84375)" />
      <path
         style="fill:#eebda2;stroke:none;fill-opacity:1"
         d="m 52.107053,249.29555 c -5.215941,0.28985 -10.872029,-0.43234 -15.846768,0.64713 12.67627,19.19056 25.468256,38.45933 38.654118,57.35773 1.563351,1.80313 2.335094,-3.87903 3.615955,-4.88257 9.163288,-17.62834 18.513932,-35.36929 27.430452,-52.99602 -17.94985,-0.19477 -35.90285,-0.13613 -53.853757,-0.12627 z m -15.846768,0.584 c 0.02168,-0.0291 -0.05235,-0.0164 0,0 z"
         id="path3004"
         inkscape:connector-curvature="0"
         transform="matrix(0.91281662,0,0,0.91281662,100.625,513.84375)" />
      <path
         style="fill:#eebda2;stroke:none;fill-opacity:1"
         d="m 35.108079,250.40041 c -10.817049,6.27027 -21.845126,12.61751 -32.3090975,19.44543 3.3085621,8.18768 8.3462025,15.66952 12.4375035,23.51762 7.122978,12.68748 14.230643,25.38355 21.355256,38.07012 12.709212,-7.55919 25.908175,-14.52456 38.22796,-22.60216 C 61.35462,289.52295 48.375068,269.79159 35.108079,250.40041 z"
         id="path3006"
         inkscape:connector-curvature="0"
         transform="matrix(0.91281662,0,0,0.91281662,100.625,513.84375)" />
      <path
         style="fill:#eebda2;stroke:none;fill-opacity:1"
         d="m 1.3626708,271.02962 c -0.2710028,20.12787 -0.1151069,40.25892 -0.1578363,60.38818 11.3694775,0 22.7389545,0 34.1084325,0 C 24.172951,311.10858 12.719812,290.89921 1.3784545,270.74551 l -0.015784,0.28411 z"
         id="path3008"
         inkscape:connector-curvature="0"
         transform="matrix(0.91281662,0,0,0.91281662,100.625,513.84375)" />
    </g>
  </g>
</svg>
