<?xml version="1.0" encoding="UTF-8" standalone="no"?>
<!-- Created with Inkscape (http://www.inkscape.org/) -->

<svg
   xmlns:dc="http://purl.org/dc/elements/1.1/"
   xmlns:cc="http://creativecommons.org/ns#"
   xmlns:rdf="http://www.w3.org/1999/02/22-rdf-syntax-ns#"
   xmlns:svg="http://www.w3.org/2000/svg"
   xmlns="http://www.w3.org/2000/svg"
   xmlns:sodipodi="http://sodipodi.sourceforge.net/DTD/sodipodi-0.dtd"
   xmlns:inkscape="http://www.inkscape.org/namespaces/inkscape"
   height="100%"
   viewBox="0 0 498.90457 489.37781"
   id="svg2"
   version="1.1"
   inkscape:version="0.48.4 r9939"
   sodipodi:docname="redRightShoot.svg"
   width="100%">
  <defs
     id="defs4" />
  <sodipodi:namedview
     id="base"
     pagecolor="#ffffff"
     bordercolor="#666666"
     borderopacity="1.0"
     inkscape:pageopacity="0.0"
     inkscape:pageshadow="2"
     inkscape:zoom="0.7"
     inkscape:cx="503.71134"
     inkscape:cy="166.9014"
     inkscape:document-units="px"
     inkscape:current-layer="g4176"
     showgrid="false"
     showguides="true"
     inkscape:guide-bbox="true"
     inkscape:window-width="1536"
     inkscape:window-height="801"
     inkscape:window-x="1528"
     inkscape:window-y="-8"
     inkscape:window-maximized="1"
     fit-margin-top="0"
     fit-margin-left="0"
     fit-margin-right="0"
     fit-margin-bottom="0" />
  <metadata
     id="metadata7">
    <rdf:RDF>
      <cc:Work
         rdf:about="">
        <dc:format>image/svg+xml</dc:format>
        <dc:type
           rdf:resource="http://purl.org/dc/dcmitype/StillImage" />
        <dc:title />
      </cc:Work>
    </rdf:RDF>
  </metadata>
  <g
     inkscape:label="Layer 1"
     inkscape:groupmode="layer"
     id="layer1" style="cursor:crosshair"
     transform="translate(-76.998692,-545.23847)">
    <g
       id="g4176"
       transform="matrix(1.0955103,0,0,1.0955103,-33.237032,-17.682646)">
      <path
         id="path4116"
         d="m 463.26008,513.99107 91.74884,0.35365 0.43253,24.4116 c 0.23787,13.42637 0.2286,45.56859 -0.0208,71.42715 l -0.45331,47.01559 -17.43264,0.47132 -17.43263,0.47133 -13.41321,8.02069 c -7.37721,4.41137 -17.03866,9.66484 -19.33327,11.58627 0.47544,0.0274 -29.35584,55.44512 -29.16645,56.0242 l 0,18.57389 0,18.57389 15.55706,25.87648 c 8.54496,14.21305 20.2556,32.07304 21.68575,34.14813 1.43025,2.0751 4.63027,3.52293 12.71763,8.06894 l 14.70421,8.26551 16.20493,2.6e-4 16.20494,1.7e-4 -0.38274,18.91783 -0.38283,18.91792 -133.80056,0.35078 -133.80062,0.35079 -0.0338,-35.77884 c -0.0182,-19.67837 -0.0338,-53.42402 -0.0338,-74.99037 0,-21.56644 0.0147,-89.03419 0.0338,-149.92837 l 0.0338,-110.71663 42.30716,-0.38291 c 23.26886,-0.21059 83.5941,-0.22375 134.0559,-0.0294 z"
         style="fill:#fc2c16;fill-opacity:1"
         inkscape:connector-curvature="0"
         sodipodi:nodetypes="ccsscccsccccscsccccccccsscscc" />
      <path
         d="m 216.74844,548.72154 c 0.0113,18.91792 0.019,86.40316 0.019,149.96725 0,63.56407 -0.009,131.66845 -0.019,151.34302 l -0.019,35.772 -32.11901,0 c -29.36909,0 -32.31399,0.21543 -34.39602,2.51611 -1.99187,2.20091 -2.27702,6.85336 -2.27702,37.14786 l 0,34.63176 -23.3893,0 -23.38931,0 c -0.60565,-0.99512 -0.0523,-445.88936 -0.0523,-445.88936 l 115.62294,0.11526 z"
         style="fill:#fdff6e;fill-opacity:1;stroke:#000000;stroke-width:0.91281646;stroke-opacity:1"
         id="path4112"
         inkscape:connector-curvature="0"
         sodipodi:nodetypes="csscscscccccc" />
      <path
         id="path4104"
         d="m 554.81932,791.96452 c 0.0541,-0.053 -21.38999,-14.35218 -31.45942,-20.58614 -2.67803,-1.62013 0.38838,1.2004 0.0328,0.0362 -1.09353,-3.58011 -0.42016,-38.0395 0.49296,-38.57438 l 32.02661,-19.4055 z"
         style="fill:#fc2c16;fill-opacity:1"
         inkscape:connector-curvature="0"
         sodipodi:nodetypes="ccsscc" />
      <path
         inkscape:connector-curvature="0"
         id="path3217"
         d="m 555.18609,927.07916 0,33.02036 -199.49711,0 -199.49701,0 0,-33.02036 0,-33.02027 199.49701,0 199.49711,0 z"
         style="fill:#fc2c16;fill-opacity:1" />
      <path
         inkscape:connector-curvature="0"
         id="path4118"
         d="m 289.0281,885.60554 -70.3505,0.38653 0.0967,-371.66056 70.35049,0.0967 z"
         style="fill:#999999;stroke:none" />
      <path
         style="fill:none;stroke:#000000;stroke-width:0.91281658px;stroke-linecap:butt;stroke-linejoin:miter;stroke-opacity:1"
         d="m 554.64051,791.71763 -31.12468,55.70026"
         id="path3058"
         inkscape:connector-curvature="0"
         sodipodi:nodetypes="cc" />
      <path
         style="fill:none;stroke:#000000;stroke-width:0.91281658px;stroke-linecap:butt;stroke-linejoin:miter;stroke-opacity:1"
         d="m 495.75935,831.13819 27.75648,-59.06847 -65.36807,-0.499"
         id="path3060"
         inkscape:connector-curvature="0"
         sodipodi:nodetypes="ccc" />
      <path
         style="fill:none;stroke:#000000;stroke-width:0.91281658px;stroke-linecap:butt;stroke-linejoin:miter;stroke-opacity:1"
         d="m 524.01483,733.2729 -65.86707,0.37424"
         id="path3062"
         inkscape:connector-curvature="0"
         sodipodi:nodetypes="cc" />
      <path
         style="fill:none;stroke:#000000;stroke-width:0.91281658px;stroke-linecap:butt;stroke-linejoin:miter;stroke-opacity:1"
         d="M 554.70289,714.31111 523.01684,657.79999"
         id="path3064"
         inkscape:connector-curvature="0"
         sodipodi:nodetypes="cc" />
      <path
         style="fill:none;stroke:#000000;stroke-width:0.91281658px;stroke-linecap:butt;stroke-linejoin:miter;stroke-opacity:1"
         d="M 524.01483,732.89865 487.4636,678.75776"
         id="path3066"
         inkscape:connector-curvature="0"
         sodipodi:nodetypes="cc" />
      <path
         style="fill:none;stroke:#000000;stroke-width:0.91281658px;stroke-linecap:butt;stroke-linejoin:miter;stroke-opacity:1"
         d="m 555.45137,657.79999 -32.43453,-0.49899 -35.81225,20.67627 -29.30633,56.41837 0.499,36.67609 37.17497,60.12884 27.69411,16.7163 31.68604,-0.49898"
         id="path3068"
         inkscape:connector-curvature="0" />
      <path
         style="fill:none;stroke:#000000;stroke-width:0.91281658px;stroke-linecap:butt;stroke-linejoin:miter;stroke-opacity:1"
         d="m 554.52835,791.80218 -31.24265,-19.94997 0.52926,-38.98908 31.01456,-18.71318"
         id="path3070"
         inkscape:connector-curvature="0"
         sodipodi:nodetypes="cccc" />
      <path
         style="fill:none;stroke:#000000;stroke-width:0.91281658px;stroke-linecap:butt;stroke-linejoin:miter;stroke-opacity:1"
         d="M 555.21783,847.71332 555.57067,656.8256"
         id="path3076"
         inkscape:connector-curvature="0" />
      <path
         style="fill:#eebda2;fill-opacity:1;stroke:none"
         d="m 538.45262,819.5602 c 4.9725,-9.30377 10.63617,-18.32087 14.91183,-27.95068 -9.82667,-6.17086 -19.56843,-12.88666 -29.54991,-18.60016 -9.1722,17.99811 -17.55411,36.53066 -25.82249,55.00509 -0.25924,1.31475 -2.41869,3.33702 -0.0823,3.90744 8.22931,5.31135 16.72117,10.19985 25.09797,15.27201 5.14831,-9.21124 10.29661,-18.42247 15.44491,-27.6337 z m -41.68108,11.56927 c -0.0478,0.015 0.0198,0.0266 0,0 z"
         id="path2996"
         inkscape:connector-curvature="0" />
      <path
         style="fill:#eebda2;fill-opacity:1;stroke:none"
         d="m 532.76163,847.29475 c 7.36137,-0.0134 14.71985,-0.23984 22.07239,-0.59071 -0.11247,-17.98917 0.23709,-35.98968 -0.36019,-53.97073 -10.08217,18.06679 -20.41817,36.33212 -30.25588,54.43177 2.84145,0.18098 5.69745,0.13165 8.54368,0.12967 z"
         id="path2998"
         inkscape:connector-curvature="0" />
      <path
         style="fill:#eebda2;fill-opacity:1;stroke:none"
         d="m 495.21552,829.64549 c 5.46466,-9.31637 9.60399,-19.53369 14.39681,-29.27521 4.20436,-9.17851 8.77499,-18.3704 12.71823,-27.56262 -7.92969,-0.95892 -16.15289,-0.34379 -24.19026,-0.60486 -12.84105,0.0395 -25.69079,-0.40068 -38.52586,-0.12993 11.67409,19.24052 23.57237,38.57281 35.60108,57.57262 z"
         id="path3000"
         inkscape:connector-curvature="0" />
      <path
         style="fill:#eebda2;fill-opacity:1;stroke:none"
         d="m 520.05416,771.45335 c 2.57607,0.78056 3.02096,-0.8194 2.66505,-3.02493 0.23274,-11.50878 0.5251,-23.06337 0.36054,-34.55 -21.59708,-0.22563 -43.21136,-0.0806 -64.80522,0.389 0.0416,12.24735 0.39593,24.49331 0.60512,36.73928 20.39121,0.16063 40.78239,0.48116 61.17451,0.44665 z"
         id="path3002"
         inkscape:connector-curvature="0" />
      <path
         style="fill:#eebda2;fill-opacity:1;stroke:none"
         d="m 508.36963,732.95634 c 4.7612,-0.26458 9.92417,0.39464 14.46519,-0.59072 -11.57111,-17.51746 -23.24785,-35.10631 -35.28412,-52.35708 -1.42705,-1.64593 -2.13151,3.54084 -3.3007,4.45689 -8.36441,16.09144 -16.89983,32.28567 -25.03898,48.37564 16.38493,0.17779 32.77272,0.12427 49.15861,0.11527 z m 14.46519,-0.53309 c -0.0198,0.0266 0.0478,0.015 0,0 z"
         id="path3004"
         inkscape:connector-curvature="0" />
      <path
         style="fill:#eebda2;fill-opacity:1;stroke:none"
         d="m 523.88657,731.9478 c 9.87399,-5.72361 19.9406,-11.51747 29.49228,-17.75011 -3.02011,-7.47385 -7.61855,-14.3034 -11.35315,-21.46728 -6.50198,-11.58134 -12.98997,-23.17052 -19.49344,-34.75103 -11.60118,6.90015 -23.64941,13.25826 -34.89511,20.63162 12.29115,17.6251 24.1391,35.63621 36.24942,53.3368 z"
         id="path3006"
         inkscape:connector-curvature="0" />
      <path
         style="fill:#eebda2;fill-opacity:1;stroke:none"
         d="m 554.68994,713.11712 c 0.24738,-18.37306 0.10507,-36.74902 0.14408,-55.12334 -10.37825,0 -20.7565,0 -31.13474,0 10.16906,18.53859 20.62368,36.98604 30.97626,55.38268 l 0.0144,-0.25934 z"
         id="path3008"
         inkscape:connector-curvature="0" />
    </g>
  </g>
</svg>
